<svg width="22" height="22" viewBox="0 0 22 22" fill="none" xmlns="http://www.w3.org/2000/svg">
<path fill-rule="evenodd" clip-rule="evenodd" d="M11 5.75781C11 2.85832 13.3505 0.507812 16.25 0.507812C16.7791 0.507812 17.2913 0.58633 17.7747 0.732859C18.027 0.80932 18.2206 1.0126 18.2847 1.2683C18.3488 1.52399 18.2739 1.79455 18.0875 1.98095L14.7688 5.29964C14.8305 5.77522 15.0438 6.23363 15.409 6.5988C15.7742 6.96398 16.2326 7.17729 16.7082 7.23898L20.0269 3.92029C20.2133 3.73389 20.4838 3.65903 20.7395 3.72311C20.9952 3.78719 21.1985 3.9808 21.275 4.23307C21.4215 4.71652 21.5 5.22867 21.5 5.75781C21.5 8.65731 19.1495 11.0078 16.25 11.0078C16.0995 11.0078 15.9503 11.0015 15.8027 10.989C14.7855 10.903 13.9338 11.0894 13.4944 11.6229L6.34327 20.3065C5.71684 21.0671 4.78308 21.5078 3.79769 21.5078C1.97642 21.5078 0.5 20.0314 0.5 18.2101C0.5 17.2247 0.940666 16.291 1.70132 15.6645L10.3849 8.51339C10.9184 8.07404 11.1048 7.22234 11.0188 6.20509C11.0064 6.05749 11 5.90831 11 5.75781ZM3.11723 18.1329C3.11723 17.7186 3.45302 17.3829 3.86723 17.3829H3.87473C4.28895 17.3829 4.62473 17.7186 4.62473 18.1329V18.1404C4.62473 18.5546 4.28895 18.8904 3.87473 18.8904H3.86723C3.45302 18.8904 3.11723 18.5546 3.11723 18.1404V18.1329Z" fill="white"/>
</svg>
